<svg viewBox="0 0 50 50" xmlns="http://www.w3.org/2000/svg"><path d="m36.853 10.972-4.229 4.228a.5.5 0 0 1 -.5.126l-13.102-3.891-3.247 3.248 10.616 5.847a.5.5 0 0 1 .112.791l-7.1 7.1a.51.51 0 0 1 -.47.133l-3.862-.933-2.115 2.115 6.33 3.214a.508.508 0 0 1 .22.22l3.214 6.33 2.115-2.115-.935-3.859a.5.5 0 0 1 .133-.47l7.1-7.1a.506.506 0 0 1 .424-.141.5.5 0 0 1 .367.253l5.847 10.616 3.248-3.247-3.889-13.109a.5.5 0 0 1 .126-.5l4.228-4.228a3.275 3.275 0 1 0 -4.631-4.631z" fill="none"/><path d="m36.146 10.265-4.019 4.018-13.105-3.891a.506.506 0 0 0 -.5.126l-3.922 3.928a.5.5 0 0 0 .112.792l10.615 5.846-6.433 6.435-3.862-.933a.5.5 0 0 0 -.47.133l-2.8 2.8a.5.5 0 0 0 .127.8l6.8 3.452 3.452 6.8a.5.5 0 0 0 .446.274.5.5 0 0 0 .354-.147l2.8-2.8a.5.5 0 0 0 .133-.47l-.932-3.862 6.433-6.433 5.848 10.615a.5.5 0 0 0 .791.112l3.928-3.928a.5.5 0 0 0 .126-.5l-3.89-13.1 4.017-4.019a4.274 4.274 0 1 0 -6.045-6.045zm5.338 5.335-4.228 4.229a.5.5 0 0 0 -.126.5l3.891 13.106-3.248 3.247-5.847-10.617a.5.5 0 0 0 -.367-.253.506.506 0 0 0 -.424.141l-7.1 7.1a.5.5 0 0 0 -.133.47l.933 3.862-2.118 2.115-3.217-6.327a.508.508 0 0 0 -.22-.22l-6.33-3.214 2.115-2.115 3.862.933a.51.51 0 0 0 .47-.133l7.1-7.1a.5.5 0 0 0 -.112-.791l-10.61-5.85 3.247-3.248 13.106 3.892a.5.5 0 0 0 .5-.126l4.229-4.229a3.275 3.275 0 1 1 4.627 4.628z"/><path d="m10.173 21.805a.5.5 0 0 0 .353-.147l4.236-4.235a.5.5 0 1 0 -.707-.707l-4.236 4.235a.5.5 0 0 0 .354.854z"/><path d="m11.937 23.776a.5.5 0 0 0 .707 0l4.235-4.235a.5.5 0 1 0 -.707-.708l-4.235 4.236a.5.5 0 0 0 0 .707z"/><path d="m33.223 35.178a.5.5 0 0 0 -.707 0l-4.236 4.235a.5.5 0 0 0 .354.854.5.5 0 0 0 .353-.147l4.236-4.235a.5.5 0 0 0 0-.707z"/><path d="m34.634 37.3-4.234 4.23a.5.5 0 0 0 .354.854.5.5 0 0 0 .353-.147l4.234-4.237a.5.5 0 0 0 -.707-.707z"/><path d="m13.524 36.813a.5.5 0 0 0 -.707 0l-4.235 4.236a.5.5 0 0 0 .707.707l4.235-4.235a.5.5 0 0 0 0-.708z"/><path d="m14.935 38.932-4.235 4.235a.5.5 0 0 0 .354.854.5.5 0 0 0 .353-.147l4.236-4.235a.5.5 0 1 0 -.707-.707z"/></svg>