<svg xmlns="http://www.w3.org/2000/svg" data-name="Livello 2" viewBox="0 0 50 50" x="0px" y="0px"><title>love-</title><path d="M36.853,10.972,32.624,15.2a.5.5,0,0,1-.5.126L19.022,11.435l-3.247,3.248L26.391,20.53a.5.5,0,0,1,.112.791l-7.1,7.1a.51.51,0,0,1-.47.133l-3.862-.933-2.115,2.115,6.33,3.214a.508.508,0,0,1,.22.22l3.214,6.33,2.115-2.115L23.9,33.526a.5.5,0,0,1,.133-.47l7.1-7.1a.506.506,0,0,1,.424-.141.5.5,0,0,1,.367.253l5.847,10.616,3.248-3.247L37.13,20.328a.5.5,0,0,1,.126-.5L41.484,15.6a3.275,3.275,0,1,0-4.631-4.631Z" fill="none"/><path d="M36.146,10.265l-4.019,4.018L19.022,10.392a.506.506,0,0,0-.5.126L14.6,14.446a.5.5,0,0,0,.112.792l10.615,5.846-6.433,6.435-3.862-.933a.5.5,0,0,0-.47.133l-2.8,2.8a.5.5,0,0,0,.127.8l6.8,3.452,3.452,6.8a.5.5,0,0,0,.446.274.5.5,0,0,0,.354-.147l2.8-2.8a.5.5,0,0,0,.133-.47l-.932-3.862,6.433-6.433,5.848,10.615a.5.5,0,0,0,.791.112l3.928-3.928a.5.5,0,0,0,.126-.5l-3.89-13.1,4.017-4.019a4.274,4.274,0,1,0-6.045-6.045ZM41.484,15.6l-4.228,4.229a.5.5,0,0,0-.126.5l3.891,13.106-3.248,3.247L31.926,26.065a.5.5,0,0,0-.367-.253.506.506,0,0,0-.424.141l-7.1,7.1a.5.5,0,0,0-.133.47l.933,3.862L22.717,39.5,19.5,33.173a.508.508,0,0,0-.22-.22l-6.33-3.214,2.115-2.115,3.862.933a.51.51,0,0,0,.47-.133l7.1-7.1a.5.5,0,0,0-.112-.791L15.775,14.683l3.247-3.248,13.106,3.892a.5.5,0,0,0,.5-.126l4.229-4.229A3.275,3.275,0,1,1,41.484,15.6Z"/><path d="M10.173,21.805a.5.5,0,0,0,.353-.147l4.236-4.235a.5.5,0,1,0-.707-.707L9.819,20.951a.5.5,0,0,0,.354.854Z"/><path d="M11.937,23.776a.5.5,0,0,0,.707,0l4.235-4.235a.5.5,0,1,0-.707-.708l-4.235,4.236A.5.5,0,0,0,11.937,23.776Z"/><path d="M33.223,35.178a.5.5,0,0,0-.707,0L28.28,39.413a.5.5,0,0,0,.354.854.5.5,0,0,0,.353-.147l4.236-4.235A.5.5,0,0,0,33.223,35.178Z"/><path d="M34.634,37.3,30.4,41.53a.5.5,0,0,0,.354.854.5.5,0,0,0,.353-.147L35.341,38a.5.5,0,0,0-.707-.707Z"/><path d="M13.524,36.813a.5.5,0,0,0-.707,0L8.582,41.049a.5.5,0,0,0,.707.707l4.235-4.235A.5.5,0,0,0,13.524,36.813Z"/><path d="M14.935,38.932,10.7,43.167a.5.5,0,0,0,.354.854.5.5,0,0,0,.353-.147l4.236-4.235a.5.5,0,1,0-.707-.707Z"/></svg>
