<svg width="48" height="48" viewBox="0 0 48 48" fill="none" xmlns="http://www.w3.org/2000/svg">
    <path d="M34.0687 18.0283C35.833 16.5212 37.5748 14.991 39.2717 13.415C42.3975 10.6157 43.4625 7.63376 42.1913 6.3429C40.9216 5.05361 37.9294 6.07517 35.0827 9.14421C33.5847 10.6957 32.128 12.2894 30.6899 13.902C18.3777 11.9129 13.5238 10.2388 13.2724 11.681C13.0624 12.8859 23.8452 19.2897 23.8452 19.2897C21.5669 21.7606 19.2885 25.2314 17.0102 27.7022C15.609 28.0637 14.2077 28.4253 12.8065 28.7868C11.9635 29.1408 12.0862 29.9354 13.0273 30.217C14.3584 30.5235 15.6895 30.8301 17.0206 31.1366L17.8627 35.1469C18.126 36.0933 18.918 36.2312 19.2883 35.3953C19.6558 33.9647 20.0232 31.5342 20.3907 30.1036C23.1931 27.5716 28.6095 23.6892 28.6095 23.6892C28.6095 23.6892 34.7285 34.9756 35.9278 34.7792C37.3689 34.543 35.7973 29.8931 34.0687 18.0283Z" stroke="#333333" stroke-width="1.25" stroke-miterlimit="10"/>
    <path d="M12.1696 35.2897L6.45825 40.8916" stroke="#333333" stroke-width="1.25" stroke-miterlimit="10" stroke-linecap="round"/>
    <path d="M13.8512 22.377L5.28418 30.7798" stroke="#333333" stroke-width="1.25" stroke-miterlimit="10" stroke-linecap="round"/>
    <path d="M26.0548 33.7997L17.4878 42.2025" stroke="#333333" stroke-width="1.25" stroke-miterlimit="10" stroke-linecap="round"/>
</svg>
