<svg viewBox="0 0 50 50" xmlns="http://www.w3.org/2000/svg"><g fill="none"><path d="m18.796 14.919h12.408v4.332h-12.408z"/><path d="m14.563 20.25h-3.674v3.676a4.2 4.2 0 0 0 3.674-3.676z"/><path d="m27.437 26.344a1.939 1.939 0 0 0 -1.937 1.936.5.5 0 0 1 -1 0 1.937 1.937 0 1 0 -3.423 1.241 2.145 2.145 0 0 0 .243.243l3.68 3.676 3.647-3.647a2.254 2.254 0 0 0 .273-.27 1.935 1.935 0 0 0 -1.483-3.179z"/><path d="m39.111 34.839v-14.589h-23.548a5.2 5.2 0 0 1 -4.674 4.676v14.589h23.548a5.2 5.2 0 0 1 4.674-4.676zm-9.421-4.678a2.907 2.907 0 0 1 -.368.368l-3.968 3.971a.5.5 0 0 1 -.708 0l-4-4a2.618 2.618 0 0 1 -.332-.334 2.935 2.935 0 1 1 4.686-3.523 2.935 2.935 0 1 1 4.69 3.518z"/><path d="m35.437 39.515h3.674v-3.676a4.2 4.2 0 0 0 -3.674 3.676z"/></g><path d="m39.611 19.25h-7.411v-4.831a.5.5 0 0 0 -.5-.5h-13.4a.5.5 0 0 0 -.5.5v4.831h-7.411a.5.5 0 0 0 -.5.5v20.265a.5.5 0 0 0 .5.5h29.222a.5.5 0 0 0 .5-.5v-20.265a.5.5 0 0 0 -.5-.5zm-20.811-4.331h12.4v4.331h-12.4zm-4.237 5.331a4.2 4.2 0 0 1 -3.674 3.676v-3.676zm-3.674 4.676a5.2 5.2 0 0 0 4.674-4.676h23.548v14.589a5.2 5.2 0 0 0 -4.674 4.676h-23.548zm24.548 14.589a4.2 4.2 0 0 1 3.674-3.676v3.676z"/><path d="m27.437 25.344a2.936 2.936 0 0 0 -2.437 1.299 2.936 2.936 0 1 0 -4.686 3.523 2.618 2.618 0 0 0 .332.334l4 4a.5.5 0 0 0 .708 0l3.968-3.972a2.932 2.932 0 0 0 1.051-2.249 2.939 2.939 0 0 0 -2.936-2.935zm1.483 4.179a2.254 2.254 0 0 1 -.273.27l-3.647 3.647-3.68-3.676a2.145 2.145 0 0 1 -.243-.243 1.936 1.936 0 1 1 3.423-1.241.5.5 0 0 0 1 0 1.937 1.937 0 1 1 3.42 1.243z"/></svg>