<svg width="48" height="48" viewBox="0 0 48 48" fill="none" xmlns="http://www.w3.org/2000/svg">
    <path d="M40 35.0341V14.6817C39.9386 12.0641 38.8443 9.57697 36.9559 7.76314C35.0675 5.94931 32.5384 4.95601 29.9204 5H17.5796C14.9616 4.95601 12.4325 5.94931 10.5441 7.76314C8.65573 9.57697 7.56143 12.0641 7.5 14.6817V35.0341H40Z" stroke="#333333" stroke-width="1.25" stroke-miterlimit="10"/>
    <path d="M16.4091 32.0341C15.5119 32.0492 14.6451 31.7087 13.9979 31.0871C13.3507 30.4654 12.9756 29.613 12.9546 28.7159V20.4204C12.9756 19.5233 13.3507 18.6709 13.9979 18.0493C14.6451 17.4276 15.5119 17.0872 16.4091 17.1023H31.091C31.9882 17.0872 32.855 17.4276 33.5022 18.0493C34.1494 18.6709 34.5244 19.5233 34.5455 20.4204V28.7159C34.5244 29.613 34.1494 30.4654 33.5022 31.0871C32.855 31.7087 31.9882 32.0492 31.091 32.0341H16.4091Z" stroke="#333333" stroke-width="1.25" stroke-miterlimit="10"/>
    <path d="M27.6362 17.1023V14.6136C27.6257 14.1651 27.4382 13.7389 27.1146 13.4281C26.791 13.1172 26.3576 12.947 25.909 12.9546H21.5908C21.1422 12.947 20.7088 13.1172 20.3852 13.4281C20.0616 13.7389 19.8741 14.1651 19.8635 14.6136V17.1023H27.6362Z" stroke="#333333" stroke-width="1.25" stroke-miterlimit="10"/>
    <path d="M14.1136 43.5C15.783 43.5 17.1363 42.2001 17.1363 40.5966C17.1363 38.9931 15.783 37.6932 14.1136 37.6932C12.4441 37.6932 11.0908 38.9931 11.0908 40.5966C11.0908 42.2001 12.4441 43.5 14.1136 43.5Z" stroke="#333333" stroke-width="1.25" stroke-miterlimit="10"/>
    <path d="M33.3863 43.5C35.0557 43.5 36.409 42.2001 36.409 40.5966C36.409 38.9931 35.0557 37.6932 33.3863 37.6932C31.7168 37.6932 30.3635 38.9931 30.3635 40.5966C30.3635 42.2001 31.7168 43.5 33.3863 43.5Z" stroke="#333333" stroke-width="1.25" stroke-miterlimit="10"/>
</svg>
