<svg xmlns="http://www.w3.org/2000/svg" data-name="Livello 2" viewBox="0 0 50 50" x="0px" y="0px"><title>love</title><path d="M24.5,31.615,20.646,27.76a2.539,2.539,0,0,1-.332-.333,2.96,2.96,0,0,1-.643-1.386H14.786V37H24.5Z" fill="none"/><path d="M30.329,26.041a2.94,2.94,0,0,1-.639,1.38,2.812,2.812,0,0,1-.37.37L25.5,31.615V37h9.714V26.041Z" fill="none"/><path d="M19.678,25.041a2.921,2.921,0,0,1,4.822-1.7V18.675H14.786v6.366Z" fill="none"/><path d="M19.146,13.005a3.684,3.684,0,0,0-.905.116c-1.362.347-2.062,1-2.14,2a2.244,2.244,0,0,0,.615,1.709,2.635,2.635,0,0,0,1.93.841h5.61C23.619,16.246,21.874,13.005,19.146,13.005Z" fill="none"/><path d="M33.7,15.812c.333-1.415-.283-2.27-1.939-2.691-3.254-.819-5.31,2.972-6.015,4.554h5.5A2.506,2.506,0,0,0,33.7,15.812Z" fill="none"/><path d="M28.92,26.784a1.936,1.936,0,1,0-3.42-1.243.5.5,0,0,1-1,0,1.937,1.937,0,1,0-3.423,1.239,1.829,1.829,0,0,0,.241.241L25,30.7l3.647-3.648A2.183,2.183,0,0,0,28.92,26.784Z" fill="none"/><path d="M25.5,23.342a2.921,2.921,0,0,1,4.822,1.7h4.892V18.675H25.5Z" fill="none"/><path d="M35.714,17.675h-2a3.316,3.316,0,0,0,.957-1.633c.267-1.132.274-3.143-2.666-3.89-3.78-.961-6.08,2.776-7.006,4.736-.931-1.96-3.238-5.7-7-4.736-2.248.572-2.813,1.89-2.891,2.9a3.236,3.236,0,0,0,.877,2.465c.057.061.125.106.185.162h-1.88a.5.5,0,0,0-.5.5V37.5a.5.5,0,0,0,.5.5H35.714a.5.5,0,0,0,.5-.5V18.175A.5.5,0,0,0,35.714,17.675Zm-.5,1v6.366H30.322a2.921,2.921,0,0,0-4.822-1.7V18.675h9.714ZM25,30.7l-3.682-3.68a1.829,1.829,0,0,1-.241-.241A1.936,1.936,0,1,1,24.5,25.541a.5.5,0,0,0,1,0,1.937,1.937,0,1,1,3.42,1.243,2.183,2.183,0,0,1-.273.269Zm6.759-17.58c1.656.421,2.272,1.276,1.939,2.691a2.506,2.506,0,0,1-2.455,1.863h-5.5C26.449,16.093,28.505,12.3,31.759,13.121ZM16.716,16.834a2.244,2.244,0,0,1-.615-1.709c.078-1,.778-1.657,2.14-2a3.684,3.684,0,0,1,.905-.116c2.728,0,4.473,3.241,5.11,4.67h-5.61A2.635,2.635,0,0,1,16.716,16.834Zm1.93,1.841H24.5v4.667a2.921,2.921,0,0,0-4.822,1.7H14.786V18.675Zm-3.86,7.366h4.885a2.96,2.96,0,0,0,.643,1.386,2.539,2.539,0,0,0,.332.333L24.5,31.615V37H14.786ZM25.5,37V31.615l3.82-3.824a2.812,2.812,0,0,0,.37-.37,2.94,2.94,0,0,0,.639-1.38h4.885V37Z"/></svg>
