<svg viewBox="0 0 50 50" xmlns="http://www.w3.org/2000/svg"><g fill="none"><path d="m24.5 31.615-3.854-3.855a2.539 2.539 0 0 1 -.332-.333 2.96 2.96 0 0 1 -.643-1.386h-4.885v10.959h9.714z"/><path d="m30.329 26.041a2.94 2.94 0 0 1 -.639 1.38 2.812 2.812 0 0 1 -.37.37l-3.82 3.824v5.385h9.714v-10.959z"/><path d="m19.678 25.041a2.921 2.921 0 0 1 4.822-1.7v-4.666h-9.714v6.366z"/><path d="m19.146 13.005a3.684 3.684 0 0 0 -.905.116c-1.362.347-2.062 1-2.14 2a2.244 2.244 0 0 0 .615 1.709 2.635 2.635 0 0 0 1.93.841h5.61c-.637-1.425-2.382-4.666-5.11-4.666z"/><path d="m33.7 15.812c.333-1.415-.283-2.27-1.939-2.691-3.254-.819-5.31 2.972-6.015 4.554h5.5a2.506 2.506 0 0 0 2.454-1.863z"/><path d="m28.92 26.784a1.936 1.936 0 1 0 -3.42-1.243.5.5 0 0 1 -1 0 1.937 1.937 0 1 0 -3.423 1.239 1.829 1.829 0 0 0 .241.241l3.682 3.679 3.647-3.648a2.183 2.183 0 0 0 .273-.268z"/><path d="m25.5 23.342a2.921 2.921 0 0 1 4.822 1.7h4.892v-6.367h-9.714z"/></g><path d="m35.714 17.675h-2a3.316 3.316 0 0 0 .957-1.633c.267-1.132.274-3.143-2.666-3.89-3.78-.961-6.08 2.776-7.006 4.736-.931-1.96-3.238-5.7-7-4.736-2.248.572-2.813 1.89-2.891 2.9a3.236 3.236 0 0 0 .877 2.465c.057.061.125.106.185.162h-1.88a.5.5 0 0 0 -.5.5v19.321a.5.5 0 0 0 .5.5h21.424a.5.5 0 0 0 .5-.5v-19.325a.5.5 0 0 0 -.5-.5zm-.5 1v6.366h-4.892a2.921 2.921 0 0 0 -4.822-1.7v-4.666zm-10.214 12.025-3.682-3.68a1.829 1.829 0 0 1 -.241-.241 1.936 1.936 0 1 1 3.423-1.238.5.5 0 0 0 1 0 1.937 1.937 0 1 1 3.42 1.243 2.183 2.183 0 0 1 -.273.269zm6.759-17.58c1.656.421 2.272 1.276 1.939 2.691a2.506 2.506 0 0 1 -2.455 1.863h-5.5c.706-1.581 2.762-5.374 6.016-4.553zm-15.043 3.714a2.244 2.244 0 0 1 -.615-1.709c.078-1 .778-1.657 2.14-2a3.684 3.684 0 0 1 .905-.116c2.728 0 4.473 3.241 5.11 4.67h-5.61a2.635 2.635 0 0 1 -1.93-.845zm1.93 1.841h5.854v4.667a2.921 2.921 0 0 0 -4.822 1.7h-4.892v-6.367zm-3.86 7.366h4.885a2.96 2.96 0 0 0 .643 1.386 2.539 2.539 0 0 0 .332.333l3.854 3.855v5.385h-9.714zm10.714 10.959v-5.385l3.82-3.824a2.812 2.812 0 0 0 .37-.37 2.94 2.94 0 0 0 .639-1.38h4.885v10.959z"/></svg>